<svg width="36" height="44" viewBox="0 0 36 44" fill="none" xmlns="http://www.w3.org/2000/svg">
<path d="M11.2921 1.35308C3.98849 4.25971 0 10.524 0 18.9933V22.7017H8.80576H17.6115V21.4489C17.6115 20.6972 17.3007 20.196 16.8863 20.196C15.2288 20.196 14.5036 18.0912 14.5036 13.3304C14.5036 8.76998 14.5036 8.66975 16.0576 7.56724C17.5079 6.56496 17.6115 6.26427 17.6115 3.30754V0.150343H15.954C15.0216 0.150343 12.9496 0.701599 11.2921 1.35308Z" fill="#B2B2B2"/>
<path d="M18.6475 3.40776C18.6475 6.41461 18.8029 6.86564 19.9425 7.7677C21.1856 8.66975 21.2374 9.02055 21.2374 13.6812C21.2374 18.3418 21.1856 18.6926 19.9425 19.5946C19.2173 20.1459 18.6475 21.048 18.6475 21.6493C18.6475 22.7017 18.8547 22.7017 27.2461 22.7017H35.8964L35.6374 17.7905C35.3266 12.0775 33.9281 8.56952 30.5094 5.16176C28.1784 2.85651 23.8273 0.701599 20.6676 0.300686L18.6475 6.22123e-07V3.40776Z" fill="#B2B2B2"/>
<path d="M15.9103 8.49434C15.1851 9.24605 15.0815 10.2483 15.1851 13.8566C15.3405 18.1163 15.3923 18.3167 16.7909 19.0684C18.1894 19.77 18.293 19.77 19.5362 18.4169C20.5722 17.2142 20.7794 16.4625 20.7794 13.7563C20.7794 9.54674 19.7434 7.59229 17.6196 7.54217C17.1535 7.54217 16.3765 7.94309 15.9103 8.49434Z" fill="#3498DB"/>
</svg>
