<svg width="36" height="44" viewBox="0 0 36 44" fill="none" xmlns="http://www.w3.org/2000/svg">
<path d="M11.3957 1.35308C4.0921 4.25971 0.103607 10.524 0.103607 18.9933V22.7017H8.90936H17.7151V21.4489C17.7151 20.6972 17.4043 20.196 16.9899 20.196C15.3324 20.196 14.6072 18.0912 14.6072 13.3304C14.6072 8.76998 14.6072 8.66975 16.1612 7.56724C17.6115 6.56496 17.7151 6.26427 17.7151 3.30754V0.150343H16.0576C15.1252 0.150343 13.0532 0.701599 11.3957 1.35308Z" fill="#3498DB"/>
<path d="M18.7511 3.40776C18.7511 6.41461 18.9065 6.86564 20.0461 7.7677C21.2892 8.66975 21.341 9.02055 21.341 13.6812C21.341 18.3418 21.2892 18.6926 20.0461 19.5946C19.3209 20.1459 18.7511 21.048 18.7511 21.6493C18.7511 22.7017 18.9583 22.7017 27.3497 22.7017H36L35.741 17.7905C35.4302 12.0775 34.0317 8.56952 30.613 5.16176C28.282 2.85651 23.931 0.701599 20.7712 0.300686L18.7511 6.22123e-07V3.40776Z" fill="#B2B2B2"/>
<path d="M16.0139 8.49434C15.2887 9.24605 15.1851 10.2483 15.2887 13.8566C15.4441 18.1163 15.4959 18.3167 16.8945 19.0684C18.293 19.77 18.3966 19.77 19.6398 18.4169C20.6758 17.2142 20.883 16.4625 20.883 13.7563C20.883 9.54674 19.847 7.59229 17.7233 7.54217C17.2571 7.54217 16.4801 7.94309 16.0139 8.49434Z" fill="#B2B2B2"/>
<rect y="24" width="36" height="20" rx="2" fill="#3498DB"/>
<path d="M9.53586 31.7827C9.50177 31.4389 9.35546 31.1719 9.09694 30.9815C8.83841 30.7912 8.48756 30.696 8.04438 30.696C7.74324 30.696 7.48898 30.7386 7.2816 30.8239C7.07421 30.9062 6.91512 31.0213 6.80432 31.169C6.69637 31.3168 6.64239 31.4844 6.64239 31.6719C6.63671 31.8281 6.66938 31.9645 6.7404 32.081C6.81427 32.1974 6.91512 32.2983 7.04296 32.3835C7.1708 32.4659 7.31853 32.5383 7.48614 32.6008C7.65376 32.6605 7.83273 32.7116 8.02307 32.7543L8.80717 32.9418C9.18785 33.027 9.53728 33.1406 9.85546 33.2827C10.1736 33.4247 10.4492 33.5994 10.6822 33.8068C10.9151 34.0142 11.0955 34.2585 11.2234 34.5398C11.354 34.821 11.4208 35.1435 11.4236 35.5071C11.4208 36.0412 11.2844 36.5043 11.0146 36.8963C10.7475 37.2855 10.3611 37.5881 9.85546 37.804C9.35262 38.017 8.74609 38.1236 8.03586 38.1236C7.33131 38.1236 6.71768 38.0156 6.19495 37.7997C5.67506 37.5838 5.26881 37.2642 4.9762 36.8409C4.68643 36.4148 4.53444 35.8878 4.52023 35.2599H6.30574C6.32563 35.5525 6.40944 35.7969 6.55716 35.9929C6.70773 36.1861 6.90802 36.3324 7.15802 36.4318C7.41086 36.5284 7.69637 36.5767 8.01455 36.5767C8.32705 36.5767 8.59836 36.5312 8.82847 36.4403C9.06143 36.3494 9.24182 36.223 9.36967 36.0611C9.49751 35.8991 9.56143 35.7131 9.56143 35.5028C9.56143 35.3068 9.50319 35.142 9.38671 35.0085C9.27307 34.875 9.10546 34.7614 8.88387 34.6676C8.66512 34.5739 8.39665 34.4886 8.07847 34.4119L7.12819 34.1733C6.39239 33.9943 5.81143 33.7145 5.38529 33.3338C4.95915 32.9531 4.74751 32.4403 4.75035 31.7954C4.74751 31.267 4.88813 30.8054 5.17222 30.4105C5.45915 30.0156 5.85262 29.7074 6.35262 29.4858C6.85262 29.2642 7.4208 29.1534 8.05717 29.1534C8.70489 29.1534 9.27023 29.2642 9.75319 29.4858C10.239 29.7074 10.6168 30.0156 10.8867 30.4105C11.1566 30.8054 11.2958 31.2628 11.3043 31.7827H9.53586Z" fill="white"/>
<path d="M14.446 34.2159V38H12.6307V29.2727H14.3949V32.6094H14.4716C14.6193 32.223 14.8579 31.9204 15.1875 31.7017C15.517 31.4801 15.9304 31.3693 16.4275 31.3693C16.8821 31.3693 17.2784 31.4687 17.6165 31.6676C17.9574 31.8636 18.2216 32.1463 18.4091 32.5156C18.5994 32.8821 18.6932 33.321 18.6903 33.8324V38H16.875V34.1562C16.8778 33.7528 16.7756 33.4389 16.5682 33.2145C16.3636 32.99 16.0767 32.8778 15.7074 32.8778C15.4602 32.8778 15.2415 32.9304 15.0511 33.0355C14.8636 33.1406 14.7159 33.294 14.6079 33.4957C14.5028 33.6946 14.4489 33.9347 14.446 34.2159Z" fill="white"/>
<path d="M20.119 38V31.4545H21.9343V38H20.119ZM21.0309 30.6108C20.761 30.6108 20.5295 30.5213 20.3363 30.3423C20.1459 30.1605 20.0508 29.9432 20.0508 29.6903C20.0508 29.4403 20.1459 29.2258 20.3363 29.0469C20.5295 28.865 20.761 28.7741 21.0309 28.7741C21.3008 28.7741 21.5309 28.865 21.7212 29.0469C21.9144 29.2258 22.011 29.4403 22.011 29.6903C22.011 29.9432 21.9144 30.1605 21.7212 30.3423C21.5309 30.5213 21.3008 30.6108 21.0309 30.6108Z" fill="white"/>
<path d="M26.9084 31.4545V32.8182H22.8686V31.4545H26.9084ZM23.7933 38V30.9815C23.7933 30.5071 23.8856 30.1136 24.0703 29.8011C24.2578 29.4886 24.5135 29.2543 24.8373 29.098C25.1612 28.9418 25.5291 28.8636 25.941 28.8636C26.2195 28.8636 26.4737 28.8849 26.7038 28.9275C26.9368 28.9702 27.1101 29.0085 27.2237 29.0426L26.8998 30.4062C26.8288 30.3835 26.7408 30.3622 26.6356 30.3423C26.5334 30.3224 26.4283 30.3125 26.3203 30.3125C26.0533 30.3125 25.8672 30.375 25.7621 30.5C25.657 30.6222 25.6044 30.794 25.6044 31.0156V38H23.7933Z" fill="white"/>
<path d="M31.4989 31.4545V32.8182H27.5572V31.4545H31.4989ZM28.4521 29.8864H30.2674V35.9886C30.2674 36.1562 30.293 36.2869 30.3441 36.3807C30.3952 36.4716 30.4663 36.5355 30.5572 36.5724C30.6509 36.6094 30.7589 36.6278 30.881 36.6278C30.9663 36.6278 31.0515 36.6207 31.1367 36.6065C31.2219 36.5895 31.2873 36.5767 31.3327 36.5682L31.6182 37.919C31.5273 37.9474 31.3995 37.9801 31.2347 38.017C31.0699 38.0568 30.8697 38.081 30.6339 38.0895C30.1964 38.1065 29.8128 38.0483 29.4833 37.9148C29.1566 37.7812 28.9023 37.5739 28.7205 37.2926C28.5387 37.0114 28.4492 36.6562 28.4521 36.2273V29.8864Z" fill="white"/>
</svg>
