<svg width="36" height="44" viewBox="0 0 36 44" fill="none" xmlns="http://www.w3.org/2000/svg">
<path d="M11.2114 1.22667C3.96 4.19111 0 10.58 0 19.2178V23H8.74286H17.4857V21.7222C17.4857 20.9556 17.1771 20.4444 16.7657 20.4444C15.12 20.4444 14.4 18.2978 14.4 13.4422C14.4 8.79111 14.4 8.68889 15.9429 7.56444C17.3829 6.54222 17.4857 6.23556 17.4857 3.22V7.00355e-07H15.84C14.9143 7.00355e-07 12.8571 0.562223 11.2114 1.22667Z" fill="#3498DB"/>
<path d="M18.5143 3.45254C18.5143 6.4989 18.6718 6.95585 19.827 7.86976C21.0873 8.78366 21.1398 9.13907 21.1398 13.8609C21.1398 18.5828 21.0873 18.9382 19.827 19.8521C19.0919 20.4106 18.5143 21.3245 18.5143 21.9338C18.5143 23 18.7243 23 27.2309 23H36L35.7374 18.0243C35.4224 12.2362 34.0046 8.68212 30.539 5.22958C28.1761 2.89404 23.7652 0.710817 20.5622 0.304636L18.5143 4.4331e-07V3.45254Z" fill="#B2B2B2"/>
<path d="M16.1223 8.95291C15.4596 9.7052 15.365 10.7083 15.4596 14.3193C15.6016 18.5823 15.649 18.7829 16.9269 19.5352C18.2049 20.2373 18.2995 20.2373 19.4355 18.8832C20.3821 17.6795 20.5714 16.9272 20.5714 14.219C20.5714 10.0061 19.6248 8.05015 17.6842 8C17.2582 8 16.5483 8.40122 16.1223 8.95291Z" fill="#B2B2B2"/>
</svg>
